<svg xmlns="http://www.w3.org/2000/svg" height="40" viewBox="0 96 960 960" width="40"><path d="M798.333 952.666 537.667 692q-30.667 25-73.14 38.833-42.472 13.833-87.235 13.833-116.066 0-195.512-79.5t-79.446-193.833q0-114.333 79.5-193.833Q261.333 198 375.667 198 490 198 569.5 277.5T649 471.433q0 44.234-13.167 84.9Q622.666 597 596 631.667l262.333 261-60 59.999ZM376 660.667q79.5 0 134.25-55.028T565 471.333q0-79.278-54.691-134.306Q455.618 282 376.059 282q-80.115 0-134.92 55.027-54.806 55.028-54.806 134.306 0 79.278 54.806 134.306Q295.944 660.667 376 660.667Z"/></svg>